# xmcd
#
# Track frame offsets: 
#        150
#        12887
#        24687
#        36065
#        57457
#        73000
#        95990
#        108747
#        120072
#        128255
#        140087
#        152992
#        162045
#        174720
#        186740
#        199470
#        212387
#        225507
#        238280
#        252525
#        266480
#        280275
#        294447
#        306385
#        318687
#
# Disc length: 4411 seconds
#
# Revision: 2
# Processed by: cddbd v1.5.2PL0 Copyright (c) Steve Scherf et al.
# Submitted via: ExactAudioCopyFreeDBPlugin 1.0
#
DISCID=82113919
DTITLE=Washington Dinah - collection 25 songs
DYEAR=1994
DGENRE=Blues
TTITLE0=Mad About The Boy
TTITLE1=Ain't Misbehavin'
TTITLE2=What A Difference A Day Made
TTITLE3=Close To You
TTITLE4=Smoke Gets In Your Eyes
TTITLE5=Willow Weep For Me
TTITLE6=Unforgettable
TTITLE7=I Cried For You
TTITLE8=Jitterburg Waltz
TTITLE9=Shoo Shoo Baby
TTITLE10=All Or Nothing
TTITLE11=And Her Tears Flowed Like Wine
TTITLE12=Look To The Rainbow
TTITLE13=Keepin' Out Of Mischief
TTITLE14=Wise Woman Blues
TTITLE15=Blues For A Day
TTITLE16=Chewin' Mama Blues
TTITLE17=No Love No Nothing
TTITLE18=No Voot Is Really You
TTITLE19=My Loving Papa
TTITLE20=No Voot No Boot
TTITLE21=Mellow Mama Blues
TTITLE22=Arkansas
TTITLE23=Million Dollar Smile
TTITLE24=Do Nothing Till You Hear From Me
EXTD=
EXTT0=
EXTT1=
EXTT2=
EXTT3=
EXTT4=
EXTT5=
EXTT6=
EXTT7=
EXTT8=
EXTT9=
EXTT10=
EXTT11=
EXTT12=
EXTT13=
EXTT14=
EXTT15=
EXTT16=
EXTT17=
EXTT18=
EXTT19=
EXTT20=
EXTT21=
EXTT22=
EXTT23=
EXTT24=
PLAYORDER=
